<mxfile host="65bd71144e">
    <diagram id="vWl58jRk1VeAU3h_2VXg" name="Page-1">
        <mxGraphModel dx="1916" dy="1717" grid="1" gridSize="10" guides="1" tooltips="1" connect="1" arrows="1" fold="1" page="1" pageScale="1" pageWidth="850" pageHeight="1100" math="0" shadow="0">
            <root>
                <mxCell id="0"/>
                <mxCell id="1" parent="0"/>
                <mxCell id="5" value="" style="group" vertex="1" connectable="0" parent="1">
                    <mxGeometry x="40" y="-480" width="250" height="560" as="geometry"/>
                </mxCell>
                <mxCell id="2" value="" style="whiteSpace=wrap;html=1;aspect=fixed;" vertex="1" parent="5">
                    <mxGeometry width="250" height="250" as="geometry"/>
                </mxCell>
                <mxCell id="3" value="" style="rounded=0;whiteSpace=wrap;html=1;" vertex="1" parent="5">
                    <mxGeometry y="60" width="250" height="190" as="geometry"/>
                </mxCell>
                <mxCell id="4" value="Equipe" style="text;html=1;strokeColor=none;fillColor=none;align=center;verticalAlign=middle;whiteSpace=wrap;rounded=0;fontSize=20;" vertex="1" parent="5">
                    <mxGeometry x="80" y="10" width="80" height="40" as="geometry"/>
                </mxCell>
                <mxCell id="10" value="-nome: string;" style="text;html=1;strokeColor=none;fillColor=none;align=center;verticalAlign=middle;whiteSpace=wrap;rounded=0;fontSize=15;" vertex="1" parent="5">
                    <mxGeometry x="20" y="60" width="110" height="30" as="geometry"/>
                </mxCell>
                <mxCell id="11" value="-titulares: int;" style="text;html=1;strokeColor=none;fillColor=none;align=center;verticalAlign=middle;whiteSpace=wrap;rounded=0;fontSize=15;" vertex="1" parent="5">
                    <mxGeometry x="20" y="90" width="110" height="30" as="geometry"/>
                </mxCell>
                <mxCell id="18" value="+calcular Reservas: int;" style="text;html=1;strokeColor=none;fillColor=none;align=center;verticalAlign=middle;whiteSpace=wrap;rounded=0;fontSize=15;" vertex="1" parent="5">
                    <mxGeometry x="10" y="150" width="160" height="30" as="geometry"/>
                </mxCell>
                <mxCell id="19" value="+calcular total de Jogadores: int;" style="text;html=1;strokeColor=none;fillColor=none;align=center;verticalAlign=middle;whiteSpace=wrap;rounded=0;fontSize=15;" vertex="1" parent="5">
                    <mxGeometry x="8.75" y="180" width="222.5" height="30" as="geometry"/>
                </mxCell>
                <mxCell id="20" value="+gerarId: int;" style="text;html=1;strokeColor=none;fillColor=none;align=center;verticalAlign=middle;whiteSpace=wrap;rounded=0;fontSize=15;" vertex="1" parent="5">
                    <mxGeometry x="-50" y="210" width="205" height="30" as="geometry"/>
                </mxCell>
                <mxCell id="21" value="" style="endArrow=none;html=1;fontSize=20;exitX=0.001;exitY=0.382;exitDx=0;exitDy=0;exitPerimeter=0;" edge="1" parent="5" source="3">
                    <mxGeometry width="50" height="50" relative="1" as="geometry">
                        <mxPoint x="370" y="150" as="sourcePoint"/>
                        <mxPoint x="250" y="130" as="targetPoint"/>
                        <Array as="points">
                            <mxPoint x="120" y="130"/>
                        </Array>
                    </mxGeometry>
                </mxCell>
                <mxCell id="6" value="" style="group" vertex="1" connectable="0" parent="1">
                    <mxGeometry x="600" y="-470" width="250" height="250" as="geometry"/>
                </mxCell>
                <mxCell id="7" value="" style="whiteSpace=wrap;html=1;aspect=fixed;" vertex="1" parent="6">
                    <mxGeometry width="250" height="250" as="geometry"/>
                </mxCell>
                <mxCell id="8" value="" style="rounded=0;whiteSpace=wrap;html=1;" vertex="1" parent="6">
                    <mxGeometry y="60" width="250" height="190" as="geometry"/>
                </mxCell>
                <mxCell id="9" value="Equipe Service" style="text;html=1;strokeColor=none;fillColor=none;align=center;verticalAlign=middle;whiteSpace=wrap;rounded=0;fontSize=15;" vertex="1" parent="6">
                    <mxGeometry x="70" y="20" width="110" height="30" as="geometry"/>
                </mxCell>
                <mxCell id="22" value="-equipe: objeto [ ];" style="text;html=1;strokeColor=none;fillColor=none;align=center;verticalAlign=middle;whiteSpace=wrap;rounded=0;fontSize=15;" vertex="1" parent="6">
                    <mxGeometry x="10" y="70" width="160" height="30" as="geometry"/>
                </mxCell>
                <mxCell id="23" value="+adicionar Equipe;" style="text;html=1;strokeColor=none;fillColor=none;align=center;verticalAlign=middle;whiteSpace=wrap;rounded=0;fontSize=15;" vertex="1" parent="6">
                    <mxGeometry y="110" width="160" height="30" as="geometry"/>
                </mxCell>
                <mxCell id="24" value="+listar Equipe: string;&lt;span style=&quot;color: rgba(0, 0, 0, 0); font-family: monospace; font-size: 0px; text-align: start;&quot;&gt;%3CmxGraphModel%3E%3Croot%3E%3CmxCell%20id%3D%220%22%2F%3E%3CmxCell%20id%3D%221%22%20parent%3D%220%22%2F%3E%3CmxCell%20id%3D%222%22%20value%3D%22%2Badicionar%20Equipe()%3B%22%20style%3D%22text%3Bhtml%3D1%3BstrokeColor%3Dnone%3BfillColor%3Dnone%3Balign%3Dcenter%3BverticalAlign%3Dmiddle%3BwhiteSpace%3Dwrap%3Brounded%3D0%3BfontSize%3D15%3B%22%20vertex%3D%221%22%20parent%3D%221%22%3E%3CmxGeometry%20x%3D%22560%22%20y%3D%22-380%22%20width%3D%22160%22%20height%3D%2230%22%20as%3D%22geometry%22%2F%3E%3C%2FmxCell%3E%3C%2Froot%3E%3C%2FmxGraphModel%3E&lt;/span&gt;" style="text;html=1;strokeColor=none;fillColor=none;align=center;verticalAlign=middle;whiteSpace=wrap;rounded=0;fontSize=15;" vertex="1" parent="6">
                    <mxGeometry y="140" width="160" height="30" as="geometry"/>
                </mxCell>
                <mxCell id="25" value="+listar Equipe por Id: int;&lt;span style=&quot;color: rgba(0, 0, 0, 0); font-family: monospace; font-size: 0px; text-align: start;&quot;&gt;%3CmxGraphModel%3E%3Croot%3E%3CmxCell%20id%3D%220%22%2F%3E%3CmxCell%20id%3D%221%22%20parent%3D%220%22%2F%3E%3CmxCell%20id%3D%222%22%20value%3D%22%2Badicionar%20Equipe()%3B%22%20style%3D%22text%3Bhtml%3D1%3BstrokeColor%3Dnone%3BfillColor%3Dnone%3Balign%3Dcenter%3BverticalAlign%3Dmiddle%3BwhiteSpace%3Dwrap%3Brounded%3D0%3BfontSize%3D15%3B%22%20vertex%3D%221%22%20parent%3D%221%22%3E%3CmxGeometry%20x%3D%22560%22%20y%3D%22-380%22%20width%3D%22160%22%20height%3D%2230%22%20as%3D%22geometry%22%2F%3E%3C%2FmxCell%3E%3C%2Froot%3E%3C%2FmxGraphModel%3E&lt;/span&gt;" style="text;html=1;strokeColor=none;fillColor=none;align=center;verticalAlign=middle;whiteSpace=wrap;rounded=0;fontSize=15;" vertex="1" parent="6">
                    <mxGeometry x="10" y="170" width="170" height="30" as="geometry"/>
                </mxCell>
                <mxCell id="27" value="" style="endArrow=none;html=1;fontSize=20;entryX=1;entryY=0.25;entryDx=0;entryDy=0;exitX=0;exitY=0.25;exitDx=0;exitDy=0;" edge="1" parent="6" source="8" target="8">
                    <mxGeometry width="50" height="50" relative="1" as="geometry">
                        <mxPoint x="-140" y="160" as="sourcePoint"/>
                        <mxPoint x="-90" y="110" as="targetPoint"/>
                        <Array as="points"/>
                    </mxGeometry>
                </mxCell>
                <mxCell id="26" value="+deletar Equipe;" style="text;html=1;strokeColor=none;fillColor=none;align=center;verticalAlign=middle;whiteSpace=wrap;rounded=0;fontSize=15;" vertex="1" parent="6">
                    <mxGeometry x="-10" y="200" width="160" height="30" as="geometry"/>
                </mxCell>
                <mxCell id="30" value="" style="edgeStyle=none;html=1;fontSize=20;endArrow=diamond;endFill=1;" edge="1" parent="1" source="3">
                    <mxGeometry relative="1" as="geometry">
                        <mxPoint x="600" y="-325" as="targetPoint"/>
                        <Array as="points">
                            <mxPoint x="450" y="-325"/>
                        </Array>
                    </mxGeometry>
                </mxCell>
                <mxCell id="31" value="1*..." style="text;html=1;strokeColor=none;fillColor=none;align=center;verticalAlign=middle;whiteSpace=wrap;rounded=0;fontSize=20;" vertex="1" parent="1">
                    <mxGeometry x="290" y="-360" width="60" height="30" as="geometry"/>
                </mxCell>
                <mxCell id="32" value="0" style="text;html=1;strokeColor=none;fillColor=none;align=center;verticalAlign=middle;whiteSpace=wrap;rounded=0;fontSize=20;" vertex="1" parent="1">
                    <mxGeometry x="540" y="-360" width="60" height="30" as="geometry"/>
                </mxCell>
            </root>
        </mxGraphModel>
    </diagram>
</mxfile>